<?xml version="1.0" encoding="utf-8"?>
<!-- Generator: Adobe Illustrator 23.0.1, SVG Export Plug-In . SVG Version: 6.00 Build 0)  -->
<svg version="1.1" xmlns="http://www.w3.org/2000/svg" xmlns:xlink="http://www.w3.org/1999/xlink" x="0px" y="0px"
	 viewBox="0 0 402 372" style="enable-background:new 0 0 402 372;" xml:space="preserve">
<style type="text/css">
	.st0{fill:#989898;}
	.st1{fill:#4D4D4D;}
	.st2{fill:none;stroke:#4D4D4D;stroke-width:0.8515;stroke-miterlimit:10;}
	.st3{fill:#B2B2B2;}
	.st4{fill:#FFFFFF;}
	.st5{fill:#F1F1F1;}
	.st6{fill:none;stroke:#4D4D4D;stroke-width:0.6386;stroke-miterlimit:10;}
</style>
<g id="レイヤー_1">
</g>
<g id="text">
	<g>
		<circle class="st0" cx="381.1" cy="87" r="16"/>
		<circle class="st0" cx="381.1" cy="154.1" r="16"/>
		<circle class="st0" cx="381.1" cy="221.3" r="16"/>
		<circle class="st0" cx="381.1" cy="288.4" r="16.6"/>
		<circle class="st0" cx="381.1" cy="355.5" r="16"/>
		<circle class="st0" cx="320.6" cy="87" r="16"/>
		<circle class="st0" cx="320.6" cy="153.8" r="16"/>
		<circle class="st0" cx="320.6" cy="221.3" r="16.6"/>
		<circle class="st0" cx="320.6" cy="288.7" r="16"/>
		<circle class="st0" cx="320.6" cy="355.5" r="16"/>
		<g>
			<path class="st1" d="M0.7,11.9c0-0.7,0-1.2,0.1-1.4S0.9,10.2,1,10s0.2-0.4,0.3-0.6S1.6,9,1.8,8.8s0.4-0.5,0.6-0.7
				C3,7.6,3.6,7.1,4,6.8l1.4-1C5.8,5.5,6,5.3,6.2,5.1s0.3-0.3,0.4-0.4s0.2-0.3,0.3-0.4C7,3.9,7,3.6,7,3.2C7,2.5,6.9,2,6.5,1.6
				S5.5,1,4.7,1C3.8,1,3,1.4,2.6,2.1C2.3,2.6,2.2,3,2.2,3.4H1c0-0.7,0.2-1.2,0.5-1.8S2.4,0.7,3,0.4S4.2,0,4.8,0S6,0.1,6.5,0.4
				s0.9,0.7,1.2,1.2c0.3,0.5,0.5,1,0.5,1.6S8.1,4.3,7.8,4.7C7.5,5.2,7.2,5.6,7,5.8S6.4,6.2,6.3,6.4L5.6,6.9C3.2,8.7,2,10,2,10.8H8
				v1.1H0.7z"/>
			<path class="st1" d="M12.9,9.4c-0.2-0.5-0.3-1-0.4-1.6c-0.1-0.5-0.1-1.1-0.1-1.7s0-1.2,0.1-1.7c0.1-0.5,0.2-1.1,0.4-1.6
				s0.4-1,0.7-1.4c0.3-0.4,0.7-0.7,1.1-1s1-0.4,1.6-0.4c0.6,0,1.1,0.1,1.5,0.4s0.8,0.6,1.1,1s0.5,0.9,0.7,1.4c0.3,1,0.5,2.1,0.5,3.4
				c0,2.9-0.7,4.7-2.2,5.5c-0.4,0.2-0.9,0.4-1.5,0.4c-0.6,0-1.1-0.1-1.5-0.4c-0.5-0.2-0.8-0.5-1.1-0.9S13.1,9.9,12.9,9.4z M13.6,6.2
				c0,1.8,0.3,3.1,0.8,3.9c0.4,0.6,1.1,1,1.9,1c0.9,0,1.6-0.4,2-1.1c0.2-0.4,0.4-0.9,0.5-1.4c0.1-0.8,0.1-1.5,0.1-2.1s0-1.2,0-1.6
				c0-0.4-0.1-0.8-0.1-1.2c-0.1-0.4-0.2-0.8-0.3-1.1c-0.1-0.3-0.3-0.6-0.5-0.8C17.6,1.3,17,1,16.3,1C14.5,1,13.6,2.7,13.6,6.2z"/>
			<path class="st1" d="M24,1l2.6-0.9h0.8v10.7h1.7v1.1h-4.8v-1.1h1.9V1.4l-1.9,0.5L24,1z"/>
			<path class="st1" d="M33.5,3.9c0-0.7,0.2-1.4,0.6-2.1c0.4-0.7,1-1.2,1.7-1.5c0.4-0.2,0.8-0.2,1.3-0.2c1.2,0,2.1,0.5,2.8,1.4
				s1,2.3,1,4c0,2.1-0.4,3.7-1.2,4.8s-2,1.7-3.4,1.7c-0.4,0-0.8-0.1-1.2-0.2s-0.7-0.3-0.9-0.5l0.5-0.8c0.6,0.4,1.2,0.7,1.8,0.7
				c1,0,1.7-0.4,2.4-1.3s1-2.1,1.1-3.7c0,0,0,0.1-0.1,0.1s-0.1,0.2-0.2,0.2s-0.1,0.1-0.2,0.2s-0.2,0.2-0.3,0.3S38.9,7,38.7,7.1
				s-0.3,0.2-0.4,0.2c-0.4,0.1-0.8,0.2-1.2,0.2c-1.1,0-1.9-0.3-2.6-1S33.5,5,33.5,3.9z M34.7,3.9c0,0.8,0.2,1.5,0.7,1.9
				s1,0.7,1.8,0.7c0.8,0,1.5-0.3,1.9-0.9c0.3-0.4,0.5-0.8,0.6-1.5c-0.1-1.6-0.7-2.6-1.7-3c-0.3-0.1-0.5-0.2-0.8-0.2s-0.5,0-0.7,0.1
				S36,1.3,35.8,1.5S35.4,1.8,35.2,2C34.9,2.5,34.7,3.1,34.7,3.9z"/>
			<path class="st1" d="M51.1,10l0.8-0.4c0.1,0.3,0.4,0.7,0.7,1c0.1,0.1,0.3,0.2,0.6,0.4c0.2,0.1,0.5,0.2,0.8,0.2
				c0.6,0,1.1-0.2,1.4-0.7s0.4-1.1,0.4-1.9V0.1h1.2v8.5c0,1.7-0.6,2.8-1.7,3.3c-0.4,0.1-0.8,0.2-1.2,0.2s-0.8-0.1-1.2-0.2
				s-0.6-0.3-0.8-0.5c-0.2-0.2-0.4-0.4-0.5-0.6C51.3,10.5,51.1,10.2,51.1,10z"/>
			<path class="st1" d="M61,9.9c0-0.4,0-0.7,0.1-1s0.2-0.5,0.4-0.7C61.8,8,62,7.8,62.3,7.6c0.3-0.2,0.6-0.3,1-0.5
				c0.7-0.2,1.5-0.5,2.5-0.7c0-0.8-0.2-1.4-0.5-1.6c-0.3-0.2-0.7-0.4-1.2-0.4c-0.7,0-1.2,0.2-1.7,0.8C62.2,5.4,62,5.6,62,5.8
				l-0.7-0.5c0.6-1.1,1.6-1.7,3-1.7c1.3,0,2.1,0.5,2.4,1.4c0.1,0.4,0.2,0.9,0.2,1.4v4.3c0,0.2,0,0.4,0.1,0.6
				c0.1,0.3,0.1,0.4,0.2,0.5h-1c-0.2-0.1-0.2-0.5-0.2-1.3C65,11.6,64.2,12,63.4,12c-1,0-1.7-0.3-2-1C61.1,10.7,61,10.3,61,9.9z
				 M62.3,9c-0.1,0.2-0.2,0.6-0.2,0.9s0.1,0.7,0.4,0.9c0.3,0.2,0.6,0.3,0.9,0.3c0.3,0,0.6,0,0.9-0.1c0.3-0.1,0.5-0.2,0.7-0.4
				c0.4-0.3,0.7-0.5,0.9-0.8V7.4c-1,0.3-1.6,0.4-1.8,0.5C63.1,8.1,62.5,8.5,62.3,9z"/>
			<path class="st1" d="M71.2,11.9V3.7h1V5c0.5-0.5,0.9-0.8,1.3-1.1s0.9-0.4,1.5-0.4s1,0.2,1.4,0.5S77,5.1,77,5.8v6.1h-1V5.8
				c0-0.4-0.1-0.7-0.4-0.9S75,4.5,74.6,4.5c-0.8,0-1.6,0.5-2.4,1.4v6.1H71.2z"/>
			<path class="st1" d="M81.4,9.8V3.7h1v6.1c0,0.4,0.1,0.7,0.4,0.9s0.6,0.4,0.9,0.4c0.8,0,1.6-0.5,2.4-1.4V3.7h1v8.2h-1v-1.4
				c-0.7,0.7-1.4,1.2-1.9,1.3C84,12,83.7,12,83.5,12c-0.6,0-1.1-0.2-1.5-0.5S81.4,10.6,81.4,9.8z"/>
			<path class="st1" d="M91.2,9.9c0-0.4,0-0.7,0.1-1s0.2-0.5,0.4-0.7C92,8,92.2,7.8,92.4,7.6c0.3-0.2,0.6-0.3,1-0.5
				c0.7-0.2,1.5-0.5,2.5-0.7c0-0.8-0.2-1.4-0.5-1.6c-0.3-0.2-0.7-0.4-1.2-0.4c-0.7,0-1.2,0.2-1.7,0.8c-0.2,0.2-0.3,0.4-0.4,0.5
				l-0.7-0.5c0.6-1.1,1.6-1.7,3-1.7c1.3,0,2.1,0.5,2.4,1.4C96.9,5.5,97,5.9,97,6.5v4.3c0,0.2,0,0.4,0.1,0.6c0.1,0.3,0.1,0.4,0.2,0.5
				h-1c-0.2-0.1-0.2-0.5-0.2-1.3c-0.7,0.9-1.5,1.4-2.4,1.4c-1,0-1.7-0.3-2-1C91.3,10.7,91.2,10.3,91.2,9.9z M92.4,9
				c-0.1,0.2-0.2,0.6-0.2,0.9s0.1,0.7,0.4,0.9c0.3,0.2,0.6,0.3,0.9,0.3c0.3,0,0.6,0,0.9-0.1c0.3-0.1,0.5-0.2,0.7-0.4
				c0.4-0.3,0.7-0.5,0.9-0.8V7.4c-1,0.3-1.6,0.4-1.8,0.5C93.3,8.1,92.7,8.5,92.4,9z"/>
			<path class="st1" d="M101.4,11.9V3.7h1v2.2c0.2-0.5,0.4-0.9,0.6-1.1c0.5-0.8,1.2-1.2,2-1.2c0.1,0,0.2,0,0.3,0v0.9
				c-0.4,0-0.6,0.1-0.9,0.2s-0.5,0.2-0.7,0.4c-0.4,0.3-0.8,1-1.3,1.9v4.9H101.4z"/>
			<path class="st1" d="M110.1,14.9c-0.3,0.1-0.6,0.1-1,0.1s-0.6,0-1-0.1l0.1-0.9c0.2,0.1,0.4,0.1,0.8,0.1s0.6,0,0.8-0.1
				s0.4-0.2,0.5-0.3s0.2-0.3,0.4-0.4s0.2-0.3,0.3-0.5c0.1-0.3,0.2-0.6,0.2-0.9l-3-8.3h1.1l2.3,6.7l2.2-6.7h1l-2.9,8.7
				c-0.3,0.9-0.6,1.5-0.9,1.8C110.8,14.6,110.4,14.8,110.1,14.9z"/>
		</g>
		<line class="st2" x1="0" y1="56.1" x2="400" y2="56.1"/>
		<g>
			<path class="st1" d="M4.4,37.8h0.7l1.4,3.8L7,43h0c0.2-0.5,0.3-1,0.5-1.5l1.4-3.8h0.7v6.7H9.1v-4.2c0-0.5,0-1.3,0.1-1.8h0
				l-0.5,1.5l-1.4,3.9H6.8l-1.4-3.9l-0.5-1.5h0c0,0.6,0.1,1.3,0.1,1.8v4.2H4.4V37.8z"/>
			<path class="st1" d="M16.4,41.1c0-2.1,1.2-3.4,2.8-3.4c1.6,0,2.8,1.3,2.8,3.4c0,2.1-1.1,3.5-2.8,3.5
				C17.6,44.5,16.4,43.2,16.4,41.1z M21.4,41.1c0-1.8-0.9-2.9-2.2-2.9c-1.3,0-2.2,1.1-2.2,2.9c0,1.8,0.9,3,2.2,3
				C20.5,44,21.4,42.9,21.4,41.1z"/>
			<path class="st1" d="M28.7,37.8h0.6l2.7,4.6l0.7,1.3h0c0-0.7-0.1-1.3-0.1-2v-3.9h0.5v6.7h-0.6l-2.7-4.6l-0.7-1.3h0
				c0,0.6,0.1,1.3,0.1,1.9v4h-0.5V37.8z"/>
			<path class="st1" d="M66.3,38.2h-2.1v-0.5H69v0.5h-2.1v6.2h-0.6V38.2z"/>
			<path class="st1" d="M75.5,41.8v-4.1H76v4c0,1.7,0.8,2.3,1.7,2.3c0.9,0,1.8-0.5,1.8-2.3v-4H80v4.1c0,2.1-1.1,2.7-2.3,2.7
				C76.5,44.5,75.5,43.9,75.5,41.8z"/>
			<path class="st1" d="M87.2,37.8h3.7v0.5h-3.1v2.4h2.6v0.5h-2.6v2.8h3.2v0.5h-3.8V37.8z"/>
			<path class="st1" d="M125.1,37.8h0.6l0.8,3.9c0.2,0.7,0.3,1.4,0.4,2.2h0c0.2-0.7,0.3-1.5,0.5-2.2l1-3.9h0.5l1,3.9
				c0.2,0.7,0.3,1.4,0.5,2.2h0c0.1-0.7,0.3-1.5,0.4-2.2l0.8-3.9h0.5l-1.5,6.7h-0.6l-1.2-4.4c-0.1-0.5-0.2-1-0.3-1.5h0
				c-0.1,0.5-0.2,1-0.4,1.5l-1.1,4.4h-0.6L125.1,37.8z"/>
			<path class="st1" d="M138.8,37.8h3.7v0.5h-3.1v2.4h2.6v0.5h-2.6v2.8h3.2v0.5h-3.8V37.8z"/>
			<path class="st1" d="M149.3,37.8h1.6c2,0,3.1,1.3,3.1,3.3c0,2-1,3.4-3,3.4h-1.6V37.8z M150.8,44c1.8,0,2.5-1.2,2.5-2.9
				c0-1.7-0.8-2.9-2.5-2.9h-1V44H150.8z"/>
			<path class="st1" d="M186.6,38.2h-2.1v-0.5h4.8v0.5h-2.1v6.2h-0.6V38.2z"/>
			<path class="st1" d="M195.7,37.8h0.5v2.9h3.5v-2.9h0.5v6.7h-0.5v-3.3h-3.5v3.3h-0.5V37.8z"/>
			<path class="st1" d="M207.4,41.8v-4.1h0.5v4c0,1.7,0.8,2.3,1.7,2.3c0.9,0,1.8-0.5,1.8-2.3v-4h0.5v4.1c0,2.1-1.1,2.7-2.3,2.7
				C208.5,44.5,207.4,43.9,207.4,41.8z"/>
			<path class="st1" d="M248.2,37.8h3.7v0.5h-3.1v2.6h2.6v0.5h-2.6v3.2h-0.5V37.8z"/>
			<path class="st1" d="M261.9,44.4l-1.8-3h-1.4v3h-0.5v-6.7h1.9c1.3,0,2.2,0.5,2.2,1.8c0,1.1-0.6,1.7-1.7,1.8l1.8,3.1H261.9z
				 M258.8,41h1.3c1.2,0,1.8-0.5,1.8-1.4c0-1-0.6-1.3-1.8-1.3h-1.3V41z"/>
			<path class="st1" d="M269,37.8h0.5v6.7H269V37.8z"/>
			<path class="st1" d="M305.3,43.5l0.3-0.4c0.5,0.5,1.2,0.9,1.9,0.9c1,0,1.6-0.5,1.6-1.3c0-0.8-0.5-1.1-1.2-1.4l-1-0.4
				c-0.6-0.3-1.4-0.7-1.4-1.7c0-1,0.8-1.7,2-1.7c0.8,0,1.5,0.3,1.9,0.8l-0.3,0.4c-0.4-0.4-0.9-0.7-1.6-0.7c-0.9,0-1.4,0.4-1.4,1.1
				c0,0.8,0.6,1,1.1,1.3l1,0.4c0.8,0.3,1.4,0.8,1.4,1.8c0,1-0.8,1.8-2.2,1.8C306.6,44.5,305.8,44.1,305.3,43.5z"/>
			<path class="st1" d="M319.3,42.2h-2.6l-0.8,2.2h-0.5l2.3-6.7h0.6l2.3,6.7h-0.6L319.3,42.2z M319.2,41.7l-0.4-1.2
				c-0.3-0.8-0.5-1.5-0.7-2.3h0c-0.2,0.8-0.5,1.5-0.7,2.3l-0.4,1.2H319.2z"/>
			<path class="st1" d="M328.4,38.2h-2.1v-0.5h4.8v0.5h-2.1v6.2h-0.6V38.2z"/>
			<path class="st1" d="M366.1,43.5l0.3-0.4c0.5,0.5,1.2,0.9,1.9,0.9c1,0,1.6-0.5,1.6-1.3c0-0.8-0.5-1.1-1.2-1.4l-1-0.4
				c-0.6-0.3-1.4-0.7-1.4-1.7c0-1,0.8-1.7,2-1.7c0.8,0,1.5,0.3,1.9,0.8l-0.3,0.4c-0.4-0.4-0.9-0.7-1.6-0.7c-0.8,0-1.4,0.4-1.4,1.1
				c0,0.8,0.6,1,1.1,1.3l1,0.4c0.8,0.3,1.4,0.8,1.4,1.8c0,1-0.8,1.8-2.2,1.8C367.4,44.5,366.6,44.1,366.1,43.5z"/>
			<path class="st1" d="M377.1,41.8v-4.1h0.5v4c0,1.7,0.8,2.3,1.7,2.3c0.9,0,1.8-0.5,1.8-2.3v-4h0.5v4.1c0,2.1-1.1,2.7-2.3,2.7
				C378.1,44.5,377.1,43.9,377.1,41.8z"/>
			<path class="st1" d="M388.8,37.8h0.6l2.7,4.6l0.7,1.3h0c0-0.7-0.1-1.3-0.1-2v-3.9h0.5v6.7h-0.6l-2.7-4.6l-0.7-1.3h0
				c0,0.6,0.1,1.3,0.1,1.9v4h-0.5V37.8z"/>
		</g>
		<g>
			<path class="st3" d="M13.2,86.3c1.4,0.2,2.6,1.4,2.6,3.1c0,1.9-1.4,3.6-4.1,3.6c-1.2,0-2.3-0.4-2.8-0.8l0.4-1
				c0.4,0.3,1.4,0.7,2.4,0.7c2,0,2.7-1.4,2.7-2.5c0-1.8-1.5-2.6-3.1-2.6h-0.8v-1h0.8c1.2,0,2.6-0.7,2.6-2.2c0-1-0.6-1.9-2.1-1.9
				c-0.9,0-1.7,0.4-2.2,0.8l-0.4-1c0.6-0.4,1.7-0.9,2.8-0.9c2.2,0,3.2,1.4,3.2,2.8C15.4,84.6,14.6,85.7,13.2,86.3L13.2,86.3z"/>
			<path class="st3" d="M22.8,92.8V82h0l-2,1.1l-0.3-1l2.5-1.4h1.1v12H22.8z"/>
		</g>
		<g>
			<g>
				<path class="st1" d="M83,92.8V82h0l-2,1.1l-0.3-1l2.5-1.4h1.1v12H83z"/>
			</g>
		</g>
		<g>
			<g>
				<path class="st1" d="M148,92.8h-7.1v-0.8l1.2-1.2c2.8-2.9,4.3-4.6,4.3-6.6c0-1.3-0.6-2.5-2.3-2.5c-1,0-1.8,0.5-2.4,1l-0.4-0.9
					c0.7-0.7,1.8-1.2,3.1-1.2c2.4,0,3.4,1.8,3.4,3.4c0,2.3-1.6,4.2-4.1,6.7l-0.9,1v0h5.3V92.8z"/>
			</g>
		</g>
		<g>
			<g>
				<path class="st1" d="M205.4,86.3c1.4,0.2,2.6,1.4,2.6,3.1c0,1.9-1.4,3.6-4.1,3.6c-1.2,0-2.3-0.4-2.8-0.8l0.4-1
					c0.4,0.3,1.4,0.7,2.4,0.7c2,0,2.7-1.4,2.7-2.5c0-1.8-1.5-2.6-3.1-2.6h-0.8v-1h0.8c1.2,0,2.6-0.7,2.6-2.2c0-1-0.6-1.9-2.1-1.9
					c-0.9,0-1.7,0.4-2.2,0.8l-0.4-1c0.6-0.4,1.7-0.9,2.8-0.9c2.2,0,3.2,1.4,3.2,2.8C207.5,84.6,206.7,85.7,205.4,86.3L205.4,86.3z"
					/>
			</g>
		</g>
		<g>
			<g>
				<path class="st1" d="M269.6,92.8h-1.3v-3.4h-5.2v-0.8l5.1-7.8h1.4v7.6h1.6v1h-1.6V92.8z M264.5,88.4h3.9v-4.3
					c0-0.7,0-1.3,0.1-1.9h-0.1c-0.4,0.7-0.7,1.2-1,1.8L264.5,88.4L264.5,88.4z"/>
			</g>
		</g>
		<g>
			<path class="st4" d="M323.8,80.8v1.1h-4.3l-0.5,3.4c0.3,0,0.5-0.1,0.9-0.1c2.1,0,4,1.3,4,3.7c0,2.4-1.8,4.1-4.1,4.1
				c-1.2,0-2.2-0.4-2.8-0.7l0.4-1c0.4,0.3,1.3,0.7,2.4,0.7c1.5,0,2.8-1.1,2.8-2.8c0-1.6-1.1-2.8-3.3-2.8c-0.6,0-1.1,0-1.5,0.1
				l0.8-5.6H323.8z"/>
		</g>
		<g>
			<path class="st4" d="M379.2,86.4c0.5-0.8,1.5-1.5,2.8-1.5c2,0,3.4,1.5,3.4,3.8c0,2.2-1.3,4.2-3.7,4.2s-3.9-1.9-3.9-5
				c0-3.2,1.5-6.6,5.4-7.2c0.4-0.1,0.8-0.1,1.1-0.1l0,1.1C381,81.7,379.5,84.1,379.2,86.4L379.2,86.4z M384.1,88.9
				c0-1.8-1-2.9-2.4-2.9c-1.4,0-2.5,1.4-2.5,2.3c0,2.2,0.9,3.7,2.6,3.7C383.2,91.9,384.1,90.7,384.1,88.9z"/>
		</g>
		<g>
			<path class="st1" d="M19.6,148.2h7v0.8l-5,11.1h-1.4l5-10.8v0h-5.7V148.2z"/>
		</g>
		<g>
			<path class="st1" d="M81.8,153.8c-1.3-0.6-1.9-1.7-1.9-2.7c0-1.9,1.5-3.1,3.4-3.1c2.2,0,3.2,1.5,3.2,2.9c0,1-0.5,2.1-2,2.8v0.1
				c1.5,0.6,2.4,1.7,2.4,3.1c0,2-1.7,3.4-3.8,3.4c-2.3,0-3.7-1.5-3.7-3.2C79.5,155.6,80.4,154.5,81.8,153.8L81.8,153.8z M85.6,157.1
				c0-1.5-1-2.3-2.6-2.8c-1.4,0.5-2.2,1.5-2.2,2.7c0,1.4,0.9,2.4,2.4,2.4C84.7,159.4,85.6,158.3,85.6,157.1z M81.2,151
				c0,1.3,0.9,2,2.2,2.4c1-0.4,1.8-1.2,1.8-2.4c0-1-0.6-2-2-2C81.9,149,81.2,150,81.2,151z"/>
		</g>
		<g>
			<path class="st1" d="M146.9,154.5c-0.7,0.8-1.6,1.3-2.8,1.3c-2,0-3.3-1.6-3.3-3.6c0-2.2,1.4-4.2,3.8-4.2c2.2,0,3.7,2,3.7,5
				c0,4-2,6.7-5.1,7.2c-0.6,0.1-1.1,0.1-1.4,0.1v-1.1c0.3,0,0.7,0,1.2-0.1C145.1,158.9,146.6,157.3,146.9,154.5L146.9,154.5z
				 M142.2,152.1c0,1.6,0.9,2.7,2.3,2.7c1.3,0,2.5-1,2.5-2c0-2.3-0.8-3.9-2.4-3.9C143.2,149,142.2,150.3,142.2,152.1z"/>
		</g>
		<g>
			<path class="st1" d="M194.1,160.2v-10.7h0l-2,1.1l-0.3-1l2.5-1.4h1.1v12H194.1z"/>
			<path class="st1" d="M201,154.2c0-4.2,1.6-6.2,3.9-6.2c2.3,0,3.7,2.1,3.7,6.1c0,4.2-1.5,6.3-3.8,6.3
				C202.5,160.4,201,158.2,201,154.2z M207.2,154.1c0-3-0.7-5.1-2.4-5.1c-1.4,0-2.4,1.9-2.4,5.1c0,3.1,0.9,5.1,2.4,5.1
				C206.5,159.3,207.2,157,207.2,154.1z"/>
		</g>
		<g>
			<path class="st1" d="M256.5,160.2v-10.7h0l-2,1.1l-0.3-1l2.5-1.4h1.1v12H256.5z"/>
			<path class="st1" d="M267,160.2v-10.7h0l-2,1.1l-0.3-1l2.5-1.4h1.1v12H267z"/>
		</g>
		<g>
			<path class="st5" d="M314.6,160.2v-10.7h0l-2,1.1l-0.3-1l2.5-1.4h1.1v12H314.6z"/>
			<path class="st5" d="M328.7,160.2h-7.1v-0.8l1.2-1.2c2.8-2.9,4.3-4.6,4.3-6.6c0-1.3-0.6-2.5-2.3-2.5c-1,0-1.8,0.5-2.4,1l-0.4-0.9
				c0.7-0.7,1.8-1.2,3.1-1.2c2.4,0,3.4,1.8,3.4,3.4c0,2.3-1.6,4.2-4.1,6.7l-0.9,1v0h5.3V160.2z"/>
		</g>
		<g>
			<path class="st5" d="M375.5,160.2v-10.7h0l-2,1.1l-0.3-1l2.5-1.4h1.1v12H375.5z"/>
			<path class="st5" d="M386.8,153.7c1.4,0.2,2.6,1.4,2.6,3.1c0,1.9-1.4,3.6-4.1,3.6c-1.2,0-2.3-0.4-2.8-0.8l0.4-1
				c0.4,0.3,1.4,0.7,2.4,0.7c2,0,2.7-1.4,2.7-2.5c0-1.8-1.5-2.6-3.1-2.6h-0.8v-1h0.8c1.2,0,2.6-0.7,2.6-2.2c0-1-0.6-1.9-2.1-1.9
				c-0.9,0-1.7,0.4-2.2,0.8l-0.4-1c0.6-0.4,1.7-0.9,2.8-0.9c2.2,0,3.2,1.4,3.2,2.8C389,152.1,388.2,153.2,386.8,153.7L386.8,153.7z"
				/>
		</g>
		<g>
			<path class="st1" d="M12.4,227.6v-10.7h0l-2,1.1l-0.3-1l2.5-1.4h1.1v12H12.4z"/>
			<path class="st1" d="M25.4,227.6h-1.3v-3.4h-5.2v-0.8l5.1-7.8h1.4v7.6h1.6v1h-1.6V227.6z M20.3,223.2h3.9V219
				c0-0.7,0-1.3,0.1-1.9h-0.1c-0.4,0.7-0.7,1.2-1,1.8L20.3,223.2L20.3,223.2z"/>
		</g>
		<g>
			<path class="st1" d="M72.5,227.6v-10.7h0l-2,1.1l-0.3-1l2.5-1.4h1.1v12H72.5z"/>
			<path class="st1" d="M86.2,215.6v1.1h-4.3l-0.5,3.4c0.3,0,0.5-0.1,0.9-0.1c2.1,0,4,1.3,4,3.7c0,2.4-1.8,4.1-4.1,4.1
				c-1.2,0-2.2-0.4-2.8-0.7l0.4-1c0.4,0.3,1.3,0.7,2.4,0.7c1.5,0,2.8-1.1,2.8-2.8c0-1.6-1.1-2.8-3.3-2.8c-0.6,0-1.1,0-1.5,0.1
				l0.8-5.6H86.2z"/>
		</g>
		<g>
			<path class="st1" d="M133.9,227.6v-10.7h0l-2,1.1l-0.3-1l2.5-1.4h1.1v12H133.9z"/>
			<path class="st1" d="M142.2,221.3c0.5-0.8,1.5-1.5,2.8-1.5c2,0,3.4,1.5,3.4,3.8c0,2.2-1.3,4.2-3.7,4.2s-3.9-1.9-3.9-5
				c0-3.2,1.5-6.6,5.4-7.2c0.4-0.1,0.8-0.1,1.1-0.1l0,1.1C144,216.5,142.4,219,142.2,221.3L142.2,221.3z M147,223.7
				c0-1.8-1-2.9-2.4-2.9c-1.4,0-2.5,1.4-2.5,2.3c0,2.2,0.9,3.7,2.6,3.7C146.1,226.8,147,225.5,147,223.7z"/>
		</g>
		<g>
			<path class="st1" d="M194.1,227.6v-10.7h0l-2,1.1l-0.3-1l2.5-1.4h1.1v12H194.1z"/>
			<path class="st1" d="M201.3,215.6h7v0.8l-5,11.1H202l5-10.8v0h-5.7V215.6z"/>
		</g>
		<g>
			<path class="st1" d="M256.5,227.6v-10.7h0l-2,1.1l-0.3-1l2.5-1.4h1.1v12H256.5z"/>
			<path class="st1" d="M265.8,221.3c-1.3-0.6-1.9-1.7-1.9-2.7c0-1.9,1.5-3.1,3.4-3.1c2.2,0,3.2,1.5,3.2,2.9c0,1-0.5,2.1-2,2.8v0.1
				c1.5,0.6,2.4,1.7,2.4,3.1c0,2-1.7,3.4-3.8,3.4c-2.3,0-3.7-1.5-3.7-3.2C263.5,223.1,264.4,222,265.8,221.3L265.8,221.3z
				 M269.6,224.5c0-1.5-1-2.3-2.6-2.8c-1.4,0.5-2.2,1.5-2.2,2.7c0,1.4,0.9,2.4,2.4,2.4C268.7,226.8,269.6,225.8,269.6,224.5z
				 M265.2,218.4c0,1.3,0.9,2,2.2,2.4c1-0.4,1.8-1.2,1.8-2.4c0-1-0.6-2-2-2C265.9,216.4,265.2,217.4,265.2,218.4z"/>
		</g>
		<g>
			<path class="st5" d="M315.3,227.6v-10.7h0l-2,1.1l-0.3-1l2.5-1.4h1.1v12H315.3z"/>
			<path class="st5" d="M328.3,222c-0.7,0.8-1.6,1.3-2.8,1.3c-2,0-3.3-1.6-3.3-3.6c0-2.2,1.4-4.2,3.8-4.2c2.2,0,3.7,2,3.7,5
				c0,4-2,6.7-5.1,7.2c-0.6,0.1-1.1,0.1-1.4,0.1v-1.1c0.3,0,0.7,0,1.2-0.1C326.5,226.3,328,224.7,328.3,222L328.3,222z M323.6,219.6
				c0,1.6,0.9,2.7,2.3,2.7c1.3,0,2.5-1,2.5-2c0-2.3-0.8-3.9-2.4-3.9C324.6,216.5,323.6,217.8,323.6,219.6z"/>
		</g>
		<g>
			<path class="st5" d="M379.9,227.6h-7.1v-0.8l1.2-1.2c2.8-2.9,4.3-4.6,4.3-6.6c0-1.3-0.6-2.5-2.3-2.5c-1,0-1.8,0.5-2.4,1l-0.4-0.9
				c0.7-0.7,1.8-1.2,3.1-1.2c2.4,0,3.4,1.8,3.4,3.4c0,2.3-1.6,4.2-4.1,6.7l-0.9,1v0h5.3V227.6z"/>
			<path class="st5" d="M383.1,221.7c0-4.2,1.6-6.2,3.9-6.2c2.3,0,3.7,2.1,3.7,6.1c0,4.2-1.5,6.3-3.8,6.3
				C384.6,227.8,383.1,225.7,383.1,221.7z M389.3,221.6c0-3-0.7-5.1-2.4-5.1c-1.4,0-2.4,1.9-2.4,5.1c0,3.2,0.9,5.1,2.4,5.1
				C388.6,226.7,389.3,224.4,389.3,221.6z"/>
		</g>
		<g>
			<path class="st1" d="M16.1,295H9v-0.8l1.2-1.2c2.8-2.9,4.3-4.6,4.3-6.6c0-1.3-0.6-2.5-2.3-2.5c-1,0-1.8,0.5-2.4,1L9.3,284
				c0.7-0.7,1.8-1.2,3.1-1.2c2.4,0,3.4,1.8,3.4,3.4c0,2.3-1.6,4.2-4.1,6.7l-0.9,1v0h5.3V295z"/>
			<path class="st1" d="M22.8,295v-10.7h0l-2,1.1l-0.3-1l2.5-1.4h1.1v12H22.8z"/>
		</g>
		<g>
			<path class="st1" d="M76.3,295h-7.1v-0.8l1.2-1.2c2.8-2.9,4.3-4.6,4.3-6.6c0-1.3-0.6-2.5-2.3-2.5c-1,0-1.8,0.5-2.4,1l-0.4-0.9
				c0.7-0.7,1.8-1.2,3.1-1.2c2.4,0,3.4,1.8,3.4,3.4c0,2.3-1.6,4.2-4.1,6.7l-0.9,1v0h5.3V295z"/>
			<path class="st1" d="M86.7,295h-7.1v-0.8l1.2-1.2c2.8-2.9,4.3-4.6,4.3-6.6c0-1.3-0.6-2.5-2.3-2.5c-1,0-1.8,0.5-2.4,1l-0.4-0.9
				c0.7-0.7,1.8-1.2,3.1-1.2c2.4,0,3.4,1.8,3.4,3.4c0,2.3-1.6,4.2-4.1,6.7l-0.9,1v0h5.3V295z"/>
		</g>
		<g>
			<path class="st1" d="M137.6,295h-7.1v-0.8l1.2-1.2c2.8-2.9,4.3-4.6,4.3-6.6c0-1.3-0.6-2.5-2.3-2.5c-1,0-1.8,0.5-2.4,1l-0.4-0.9
				c0.7-0.7,1.8-1.2,3.1-1.2c2.4,0,3.4,1.8,3.4,3.4c0,2.3-1.6,4.2-4.1,6.7l-0.9,1v0h5.3V295z"/>
			<path class="st1" d="M145.2,288.6c1.4,0.2,2.6,1.4,2.6,3.1c0,1.9-1.4,3.6-4.1,3.6c-1.2,0-2.3-0.4-2.8-0.8l0.4-1
				c0.4,0.3,1.4,0.7,2.4,0.7c2,0,2.7-1.4,2.7-2.5c0-1.8-1.5-2.6-3.1-2.6h-0.8v-1h0.8c1.2,0,2.6-0.7,2.6-2.2c0-1-0.6-1.9-2.1-1.9
				c-0.9,0-1.7,0.4-2.2,0.8l-0.4-1c0.6-0.4,1.7-0.9,2.8-0.9c2.2,0,3.2,1.4,3.2,2.8C147.3,286.9,146.6,288,145.2,288.6L145.2,288.6z"
				/>
		</g>
		<g>
			<path class="st1" d="M197.8,295h-7.1v-0.8l1.2-1.2c2.8-2.9,4.3-4.6,4.3-6.6c0-1.3-0.6-2.5-2.3-2.5c-1,0-1.8,0.5-2.4,1L191,284
				c0.7-0.7,1.8-1.2,3.1-1.2c2.4,0,3.4,1.8,3.4,3.4c0,2.3-1.6,4.2-4.1,6.7l-0.9,1v0h5.3V295z"/>
			<path class="st1" d="M207.1,295h-1.3v-3.4h-5.2v-0.8l5.1-7.8h1.4v7.6h1.6v1h-1.6V295z M202,290.7h3.9v-4.3c0-0.7,0-1.3,0.1-1.9
				h-0.1c-0.4,0.7-0.7,1.2-1,1.8L202,290.7L202,290.7z"/>
		</g>
		<g>
			<path class="st1" d="M260.3,295h-7.1v-0.8l1.2-1.2c2.8-2.9,4.3-4.6,4.3-6.6c0-1.3-0.6-2.5-2.3-2.5c-1,0-1.8,0.5-2.4,1l-0.4-0.9
				c0.7-0.7,1.8-1.2,3.1-1.2c2.4,0,3.4,1.8,3.4,3.4c0,2.3-1.6,4.2-4.1,6.7l-0.9,1v0h5.3V295z"/>
			<path class="st1" d="M270.2,283.1v1.1h-4.3l-0.5,3.4c0.3,0,0.5-0.1,0.9-0.1c2.1,0,4,1.3,4,3.7c0,2.4-1.8,4.1-4.1,4.1
				c-1.2,0-2.2-0.4-2.8-0.7l0.4-1c0.4,0.3,1.3,0.7,2.4,0.7c1.5,0,2.8-1.1,2.8-2.8c0-1.6-1.1-2.8-3.3-2.8c-0.6,0-1.1,0-1.5,0.1
				l0.8-5.6H270.2z"/>
		</g>
		<g>
			<path class="st5" d="M318.7,295h-7.1v-0.8l1.2-1.2c2.8-2.9,4.3-4.6,4.3-6.6c0-1.3-0.6-2.5-2.3-2.5c-1,0-1.8,0.5-2.4,1l-0.4-0.9
				c0.7-0.7,1.8-1.2,3.1-1.2c2.4,0,3.4,1.8,3.4,3.4c0,2.3-1.6,4.2-4.1,6.7l-0.9,1v0h5.3V295z"/>
			<path class="st5" d="M323.2,288.7c0.5-0.8,1.5-1.5,2.8-1.5c2,0,3.4,1.5,3.4,3.8c0,2.2-1.3,4.2-3.7,4.2s-3.9-1.9-3.9-5
				c0-3.2,1.5-6.6,5.4-7.2c0.4-0.1,0.8-0.1,1.1-0.1l0,1.1C325.1,284,323.5,286.4,323.2,288.7L323.2,288.7z M328.1,291.1
				c0-1.8-1-2.9-2.4-2.9c-1.4,0-2.5,1.4-2.5,2.3c0,2.2,0.9,3.7,2.6,3.7C327.2,294.2,328.1,292.9,328.1,291.1z"/>
		</g>
		<g>
			<path class="st5" d="M379.6,296.1h-7.1v-0.8l1.2-1.2c2.8-2.9,4.3-4.6,4.3-6.6c0-1.3-0.6-2.5-2.3-2.5c-1,0-1.8,0.5-2.4,1l-0.4-0.9
				c0.7-0.7,1.8-1.2,3.1-1.2c2.4,0,3.4,1.8,3.4,3.4c0,2.3-1.6,4.2-4.1,6.7l-0.9,1v0h5.3V296.1z"/>
			<path class="st5" d="M383.1,284.2h7v0.8l-5,11.1h-1.4l5-10.8v0h-5.7V284.2z"/>
		</g>
		<g>
			<path class="st1" d="M16.1,362.5H9v-0.8l1.2-1.2c2.8-2.9,4.3-4.6,4.3-6.6c0-1.3-0.6-2.5-2.3-2.5c-1,0-1.8,0.5-2.4,1l-0.4-0.9
				c0.7-0.7,1.8-1.2,3.1-1.2c2.4,0,3.4,1.8,3.4,3.4c0,2.3-1.6,4.2-4.1,6.7l-0.9,1v0h5.3V362.5z"/>
			<path class="st1" d="M21.6,356.1c-1.3-0.6-1.9-1.7-1.9-2.7c0-1.9,1.5-3.1,3.4-3.1c2.2,0,3.2,1.5,3.2,2.9c0,1-0.5,2.1-2,2.8v0.1
				c1.5,0.6,2.4,1.7,2.4,3.1c0,2-1.7,3.4-3.8,3.4c-2.3,0-3.7-1.5-3.7-3.2C19.3,357.9,20.2,356.8,21.6,356.1L21.6,356.1z M25.4,359.4
				c0-1.5-1-2.3-2.6-2.8c-1.4,0.5-2.2,1.5-2.2,2.7c0,1.4,0.9,2.4,2.4,2.4C24.5,361.7,25.4,360.6,25.4,359.4z M21,353.3
				c0,1.3,0.9,2,2.2,2.4c1-0.4,1.8-1.2,1.8-2.4c0-1-0.6-2-2-2C21.7,351.3,21,352.3,21,353.3z"/>
		</g>
		<g>
			<path class="st1" d="M76.2,362.5h-7.1v-0.8l1.2-1.2c2.8-2.9,4.3-4.6,4.3-6.6c0-1.3-0.6-2.5-2.3-2.5c-1,0-1.8,0.5-2.4,1l-0.4-0.9
				c0.7-0.7,1.8-1.2,3.1-1.2c2.4,0,3.4,1.8,3.4,3.4c0,2.3-1.6,4.2-4.1,6.7l-0.9,1v0h5.3V362.5z"/>
			<path class="st1" d="M85.6,356.8c-0.7,0.8-1.6,1.3-2.8,1.3c-2,0-3.3-1.6-3.3-3.6c0-2.2,1.4-4.2,3.8-4.2c2.2,0,3.7,2,3.7,5
				c0,4-2,6.7-5.1,7.2c-0.6,0.1-1.1,0.1-1.4,0.1v-1.1c0.3,0,0.7,0,1.2-0.1C83.7,361.2,85.2,359.5,85.6,356.8L85.6,356.8z
				 M80.9,354.4c0,1.6,0.9,2.7,2.3,2.7c1.3,0,2.5-1,2.5-2c0-2.3-0.8-3.9-2.4-3.9C81.8,351.3,80.9,352.6,80.9,354.4z"/>
		</g>
		<g>
			<path class="st1" d="M134.7,356c1.4,0.2,2.6,1.4,2.6,3.1c0,1.9-1.4,3.6-4.1,3.6c-1.2,0-2.3-0.4-2.8-0.8l0.4-1
				c0.4,0.3,1.4,0.7,2.4,0.7c2,0,2.7-1.4,2.7-2.5c0-1.8-1.5-2.6-3.1-2.6h-0.8v-1h0.8c1.2,0,2.6-0.7,2.6-2.2c0-1-0.6-1.9-2.1-1.9
				c-0.9,0-1.7,0.4-2.2,0.8l-0.4-1c0.6-0.4,1.7-0.9,2.8-0.9c2.2,0,3.2,1.4,3.2,2.8C136.9,354.3,136.1,355.4,134.7,356L134.7,356z"/>
			<path class="st1" d="M140.8,356.5c0-4.2,1.6-6.2,3.9-6.2c2.3,0,3.7,2.1,3.7,6.1c0,4.2-1.5,6.3-3.8,6.3
				C142.3,362.7,140.8,360.5,140.8,356.5z M147,356.4c0-3-0.7-5.1-2.4-5.1c-1.4,0-2.4,1.9-2.4,5.1c0,3.1,0.9,5.1,2.4,5.1
				C146.3,361.6,147,359.3,147,356.4z"/>
		</g>
		<g>
			<path class="st1" d="M194.9,356c1.4,0.2,2.6,1.4,2.6,3.1c0,1.9-1.4,3.6-4.1,3.6c-1.2,0-2.3-0.4-2.8-0.8l0.4-1
				c0.4,0.3,1.4,0.7,2.4,0.7c2,0,2.7-1.4,2.7-2.5c0-1.8-1.5-2.6-3.1-2.6h-0.8v-1h0.8c1.2,0,2.6-0.7,2.6-2.2c0-1-0.6-1.9-2.1-1.9
				c-0.9,0-1.7,0.4-2.2,0.8l-0.4-1c0.6-0.4,1.7-0.9,2.8-0.9c2.2,0,3.2,1.4,3.2,2.8C197.1,354.3,196.3,355.4,194.9,356L194.9,356z"/>
			<path class="st1" d="M204.5,362.5v-10.7h0l-2,1.1l-0.3-1l2.5-1.4h1.1v12H204.5z"/>
		</g>
		<g>
			<g>
				<path class="st3" d="M267,362.5v-10.7h0l-2,1.1l-0.3-1l2.5-1.4h1.1v12H267z"/>
			</g>
		</g>
		<g>
			<path class="st5" d="M324.6,362.5h-7.1v-0.8l1.2-1.2c2.8-2.9,4.3-4.6,4.3-6.6c0-1.3-0.6-2.5-2.3-2.5c-1,0-1.8,0.5-2.4,1l-0.4-0.9
				c0.7-0.7,1.8-1.2,3.1-1.2c2.4,0,3.4,1.8,3.4,3.4c0,2.3-1.6,4.2-4.1,6.7l-0.9,1v0h5.3V362.5z"/>
		</g>
		<g>
			<path class="st5" d="M382.2,356c1.4,0.2,2.6,1.4,2.6,3.1c0,1.9-1.4,3.6-4.1,3.6c-1.2,0-2.3-0.4-2.8-0.8l0.4-1
				c0.4,0.3,1.4,0.7,2.4,0.7c2,0,2.7-1.4,2.7-2.5c0-1.8-1.5-2.6-3.1-2.6h-0.8v-1h0.8c1.2,0,2.6-0.7,2.6-2.2c0-1-0.6-1.9-2.1-1.9
				c-0.9,0-1.7,0.4-2.2,0.8l-0.4-1c0.6-0.4,1.7-0.9,2.8-0.9c2.2,0,3.2,1.4,3.2,2.8C384.4,354.3,383.6,355.4,382.2,356L382.2,356z"/>
		</g>
	</g>
	<circle class="st0" cx="318.9" cy="-245.7" r="12"/>
	<circle class="st0" cx="318.9" cy="-195.3" r="12"/>
	<circle class="st0" cx="318.9" cy="-145" r="12"/>
	<circle class="st0" cx="318.9" cy="-94.6" r="12.4"/>
	<circle class="st0" cx="318.9" cy="-44.3" r="12"/>
	<circle class="st0" cx="273.4" cy="-245.7" r="12"/>
	<circle class="st0" cx="273.4" cy="-195.6" r="12"/>
	<circle class="st0" cx="273.4" cy="-145" r="12.4"/>
	<circle class="st0" cx="273.4" cy="-94.4" r="12"/>
	<circle class="st0" cx="273.4" cy="-44.3" r="12"/>
	<text transform="matrix(1 0 0 1 33 -301.9841)" class="st1" style="font-family:'NewsCycle'; font-size:12px; letter-spacing:1;">2019 January</text>
	<line class="st6" x1="33" y1="-268.8" x2="333" y2="-268.8"/>
	<rect x="35.6" y="-283.7" style="fill:none;" width="293.1" height="9.2"/>
	<text transform="matrix(1 0 0 1 35.5715 -277.6189)"><tspan x="0" y="0" class="st1" style="font-family:'NotoSansTC-Light-83pv-RKSJ-H'; font-size:6.8571px; letter-spacing:3;">MON  </tspan><tspan x="37.9" y="0" class="st1" style="font-family:'NotoSansTC-Light-83pv-RKSJ-H'; font-size:6.8571px; letter-spacing:5;"> </tspan><tspan x="45.4" y="0" class="st1" style="font-family:'NotoSansTC-Light-83pv-RKSJ-H'; font-size:6.8571px; letter-spacing:3;">TUE   </tspan><tspan x="86.3" y="0" class="st1" style="font-family:'NotoSansTC-Light-83pv-RKSJ-H'; font-size:6.8571px; letter-spacing:3;"> </tspan><tspan x="91" y="0" class="st1" style="font-family:'NotoSansTC-Light-83pv-RKSJ-H'; font-size:6.8571px; letter-spacing:3;">WE</tspan><tspan x="108.7" y="0" class="st1" style="font-family:'NotoSansTC-Light-83pv-RKSJ-H'; font-size:6.8571px; letter-spacing:1;">D</tspan><tspan x="114.5" y="0" class="st1" style="font-family:'NotoSansTC-Light-83pv-RKSJ-H'; font-size:6.8571px; letter-spacing:3;"> </tspan><tspan x="119.9" y="0" class="st1" style="font-family:'NotoSansTC-Light-83pv-RKSJ-H'; font-size:6.8571px; letter-spacing:3;"> </tspan><tspan x="124.7" y="0" class="st1" style="font-family:'NotoSansTC-Light-83pv-RKSJ-H'; font-size:6.8571px; letter-spacing:3;">  THU    FRI    SAT    SU</tspan><tspan x="288.3" y="0" class="st1" style="font-family:'NotoSansTC-Light-83pv-RKSJ-H'; font-size:6.8571px;">N</tspan></text>
	
		<text transform="matrix(1 0 0 1 39.1492 -241.3655)" class="st3" style="font-family:'KozGoPr6N-Regular-83pv-RKSJ-H'; font-size:12px; letter-spacing:1;">31</text>
	<g>
		
			<text transform="matrix(1 0 0 1 92.104 -241.3655)" class="st1" style="font-family:'KozGoPr6N-Regular-83pv-RKSJ-H'; font-size:12px; letter-spacing:1;">1</text>
	</g>
	<g>
		
			<text transform="matrix(1 0 0 1 138.1035 -241.3655)" class="st1" style="font-family:'KozGoPr6N-Regular-83pv-RKSJ-H'; font-size:12px; letter-spacing:1;">2</text>
	</g>
	<g>
		
			<text transform="matrix(1 0 0 1 183.2471 -241.3655)" class="st1" style="font-family:'KozGoPr6N-Regular-83pv-RKSJ-H'; font-size:12px; letter-spacing:1;">3</text>
	</g>
	<g>
		
			<text transform="matrix(1 0 0 1 230.1035 -241.3655)" class="st1" style="font-family:'KozGoPr6N-Regular-83pv-RKSJ-H'; font-size:12px; letter-spacing:1;">4</text>
	</g>
	
		<text transform="matrix(1 0 0 1 270.2549 -241.3655)" class="st4" style="font-family:'KozGoPr6N-Regular-83pv-RKSJ-H'; font-size:12px; letter-spacing:1;">5</text>
	
		<text transform="matrix(1 0 0 1 315.9126 -241.3655)" class="st4" style="font-family:'KozGoPr6N-Regular-83pv-RKSJ-H'; font-size:12px; letter-spacing:1;">6</text>
	
		<text transform="matrix(1 0 0 1 46.9609 -190.7937)" class="st1" style="font-family:'KozGoPr6N-Regular-83pv-RKSJ-H'; font-size:12px; letter-spacing:1;">7</text>
	
		<text transform="matrix(1 0 0 1 92.104 -190.7937)" class="st1" style="font-family:'KozGoPr6N-Regular-83pv-RKSJ-H'; font-size:12px; letter-spacing:1;">8</text>
	
		<text transform="matrix(1 0 0 1 138.0918 -190.7937)" class="st1" style="font-family:'KozGoPr6N-Regular-83pv-RKSJ-H'; font-size:12px; letter-spacing:1;">9</text>
	
		<text transform="matrix(1 0 0 1 175.4351 -190.7937)" class="st1" style="font-family:'KozGoPr6N-Regular-83pv-RKSJ-H'; font-size:12px; letter-spacing:1;">10</text>
	
		<text transform="matrix(1 0 0 1 222.2917 -190.7937)" class="st1" style="font-family:'KozGoPr6N-Regular-83pv-RKSJ-H'; font-size:12px; letter-spacing:1;">11</text>
	
		<text transform="matrix(1 0 0 1 265.8447 -190.7937)" class="st5" style="font-family:'KozGoPr6N-Regular-83pv-RKSJ-H'; font-size:12px; letter-spacing:1;">12</text>
	
		<text transform="matrix(1 0 0 1 311.5081 -190.7937)" class="st5" style="font-family:'KozGoPr6N-Regular-83pv-RKSJ-H'; font-size:12px; letter-spacing:1;">13</text>
	
		<text transform="matrix(1 0 0 1 39.1492 -140.2229)" class="st1" style="font-family:'KozGoPr6N-Regular-83pv-RKSJ-H'; font-size:12px; letter-spacing:1;">14</text>
	
		<text transform="matrix(1 0 0 1 84.292 -140.2229)" class="st1" style="font-family:'KozGoPr6N-Regular-83pv-RKSJ-H'; font-size:12px; letter-spacing:1;">15</text>
	
		<text transform="matrix(1 0 0 1 130.2917 -140.2229)" class="st1" style="font-family:'KozGoPr6N-Regular-83pv-RKSJ-H'; font-size:12px; letter-spacing:1;">16</text>
	
		<text transform="matrix(1 0 0 1 175.4351 -140.2229)" class="st1" style="font-family:'KozGoPr6N-Regular-83pv-RKSJ-H'; font-size:12px; letter-spacing:1;">17</text>
	
		<text transform="matrix(1 0 0 1 222.2917 -140.2229)" class="st1" style="font-family:'KozGoPr6N-Regular-83pv-RKSJ-H'; font-size:12px; letter-spacing:1;">18</text>
	
		<text transform="matrix(1 0 0 1 266.3372 -140.2229)" class="st5" style="font-family:'KozGoPr6N-Regular-83pv-RKSJ-H'; font-size:12px; letter-spacing:1;">19</text>
	
		<text transform="matrix(1 0 0 1 312.0066 -140.2229)" class="st5" style="font-family:'KozGoPr6N-Regular-83pv-RKSJ-H'; font-size:12px; letter-spacing:1;">20</text>
	
		<text transform="matrix(1 0 0 1 39.1492 -89.6511)" class="st1" style="font-family:'KozGoPr6N-Regular-83pv-RKSJ-H'; font-size:12px; letter-spacing:1;">21</text>
	
		<text transform="matrix(1 0 0 1 84.292 -89.6511)" class="st1" style="font-family:'KozGoPr6N-Regular-83pv-RKSJ-H'; font-size:12px; letter-spacing:1;">22</text>
	
		<text transform="matrix(1 0 0 1 130.2917 -89.6511)" class="st1" style="font-family:'KozGoPr6N-Regular-83pv-RKSJ-H'; font-size:12px; letter-spacing:1;">23</text>
	
		<text transform="matrix(1 0 0 1 175.4351 -89.6511)" class="st1" style="font-family:'KozGoPr6N-Regular-83pv-RKSJ-H'; font-size:12px; letter-spacing:1;">24</text>
	
		<text transform="matrix(1 0 0 1 222.2917 -89.6511)" class="st1" style="font-family:'KozGoPr6N-Regular-83pv-RKSJ-H'; font-size:12px; letter-spacing:1;">25</text>
	
		<text transform="matrix(1 0 0 1 266.1094 -89.6511)" class="st5" style="font-family:'KozGoPr6N-Regular-83pv-RKSJ-H'; font-size:12px; letter-spacing:1;">26</text>
	
		<text transform="matrix(1 0 0 1 311.7664 -88.8245)" class="st5" style="font-family:'KozGoPr6N-Regular-83pv-RKSJ-H'; font-size:12px; letter-spacing:1;">27</text>
	
		<text transform="matrix(1 0 0 1 39.1492 -39.0798)" class="st1" style="font-family:'KozGoPr6N-Regular-83pv-RKSJ-H'; font-size:12px; letter-spacing:1;">28</text>
	
		<text transform="matrix(1 0 0 1 84.28 -39.0798)" class="st1" style="font-family:'KozGoPr6N-Regular-83pv-RKSJ-H'; font-size:12px; letter-spacing:1;">29</text>
	
		<text transform="matrix(1 0 0 1 130.2917 -39.0798)" class="st1" style="font-family:'KozGoPr6N-Regular-83pv-RKSJ-H'; font-size:12px; letter-spacing:1;">30</text>
	
		<text transform="matrix(1 0 0 1 175.4351 -39.0798)" class="st1" style="font-family:'KozGoPr6N-Regular-83pv-RKSJ-H'; font-size:12px; letter-spacing:1;">31</text>
	<g>
		
			<text transform="matrix(1 0 0 1 230.1035 -39.0798)" class="st3" style="font-family:'KozGoPr6N-Regular-83pv-RKSJ-H'; font-size:12px; letter-spacing:1;">1</text>
	</g>
	
		<text transform="matrix(1 0 0 1 270.5254 -39.0798)" class="st5" style="font-family:'KozGoPr6N-Regular-83pv-RKSJ-H'; font-size:12px; letter-spacing:1;">2</text>
	
		<text transform="matrix(1 0 0 1 315.918 -39.0798)" class="st5" style="font-family:'KozGoPr6N-Regular-83pv-RKSJ-H'; font-size:12px; letter-spacing:1;">3</text>
</g>
</svg>
