<?xml version="1.0" encoding="utf-8"?>
<!-- Generator: Adobe Illustrator 22.1.0, SVG Export Plug-In . SVG Version: 6.00 Build 0)  -->
<svg version="1.1" id="レイヤー_1" xmlns="http://www.w3.org/2000/svg" xmlns:xlink="http://www.w3.org/1999/xlink" x="0px"
	 y="0px" viewBox="0 0 50 46.6" style="enable-background:new 0 0 50 46.6;" xml:space="preserve">
<style type="text/css">
	.st0{fill:#FFFFFF;}
</style>
<g>
	<path class="st0" d="M39.2,5V2.8c0-0.9,0.7-1.6,1.6-1.6c0.9,0,1.6,0.7,1.6,1.6V5h1.2V2.8c0-1.6-1.3-2.8-2.8-2.8
		C39.2,0,38,1.3,38,2.8V5H39.2z"/>
	<path class="st0" d="M13.1,5V2.8c0-0.9,0.7-1.6,1.6-1.6c0.8,0,1.5,0.7,1.6,1.6V5h1.2V2.8c0-1.6-1.3-2.8-2.8-2.8
		c-1.6,0-2.8,1.3-2.8,2.8V5H13.1z"/>
	<path class="st0" d="M46.2,6.2c1.4,0,2.6,1.2,2.6,2.6v28.9c0,1.4-1.2,2.6-2.6,2.6H8.8c-1.4,0-2.6-1.2-2.6-2.6V8.8
		c0-1.4,1.2-2.6,2.6-2.6L46.2,6.2 M46.2,5H8.8C6.7,5,5,6.8,5,8.8v28.9c0,2.1,1.7,3.8,3.8,3.8h37.4c2.1,0,3.8-1.7,3.8-3.8V8.8
		C50,6.8,48.3,5,46.2,5L46.2,5z"/>
</g>
<path class="st0" d="M43.8,41.6v1.2c0,1.4-1.2,2.6-2.6,2.6H3.8c-1.4,0-2.6-1.2-2.6-2.6V13.9c0-1.4,1.2-2.6,2.6-2.6H5v-1.2H3.8
	c-2.1,0-3.8,1.7-3.8,3.8v28.9c0,2.1,1.7,3.8,3.8,3.8h37.4c2.1,0,3.8-1.7,3.8-3.8v-1.2H43.8z"/>
</svg>
