<?xml version="1.0" encoding="utf-8"?>
<!-- Generator: Adobe Illustrator 22.1.0, SVG Export Plug-In . SVG Version: 6.00 Build 0)  -->
<svg version="1.1" xmlns="http://www.w3.org/2000/svg" xmlns:xlink="http://www.w3.org/1999/xlink" x="0px" y="0px"
	 viewBox="0 0 50 46.6" style="enable-background:new 0 0 50 46.6;" xml:space="preserve">
<style type="text/css">
	.st0{fill:#4D4D4D;}
	.st1{fill:#FFFFFF;}
</style>
<g id="レイヤー_1">
</g>
<g id="text">
	<g>
		<path class="st0" d="M14.7,10.1L14.7,10.1c-1.5,0-2.8-1.2-2.8-2.8V2.8c0-1.5,1.2-2.8,2.8-2.8c1.5,0,2.8,1.2,2.8,2.8v4.6
			C17.4,8.8,16.2,10.1,14.7,10.1z M14.7,1.2c-0.9,0-1.6,0.7-1.6,1.6v4.6c0,0.9,0.7,1.6,1.6,1.6h0c0.9,0,1.6-0.7,1.6-1.6V2.8
			C16.2,1.9,15.5,1.2,14.7,1.2z"/>
		<path class="st0" d="M40.8,10.1L40.8,10.1c-1.5,0-2.8-1.2-2.8-2.8V2.8c0-1.5,1.2-2.8,2.8-2.8c1.5,0,2.8,1.2,2.8,2.8v4.6
			C43.6,8.8,42.4,10.1,40.8,10.1z M40.8,1.2c-0.9,0-1.6,0.7-1.6,1.6v4.6c0,0.9,0.7,1.6,1.6,1.6h0c0.9,0,1.6-0.7,1.6-1.6V2.8
			C42.4,1.9,41.7,1.2,40.8,1.2z"/>
		<g>
			<path class="st1" d="M41.2,46.6H3.8c-2.1,0-3.8-1.7-3.8-3.8V13.9c0-2.1,1.7-3.8,3.8-3.8h37.4c2.1,0,3.8,1.7,3.8,3.8v28.9
				C45,44.9,43.3,46.6,41.2,46.6z"/>
			<path class="st0" d="M41.2,11.3c1.4,0,2.6,1.2,2.6,2.6v28.9c0,1.4-1.2,2.6-2.6,2.6H3.8c-1.4,0-2.6-1.2-2.6-2.6V13.9
				c0-1.4,1.2-2.6,2.6-2.6H41.2 M41.2,10.1H3.8c-2.1,0-3.8,1.7-3.8,3.8v28.9c0,2.1,1.7,3.8,3.8,3.8h37.4c2.1,0,3.8-1.7,3.8-3.8V13.9
				C45,11.8,43.3,10.1,41.2,10.1L41.2,10.1z"/>
		</g>
		<g>
			<path class="st1" d="M46.2,41.6H8.8c-2.1,0-3.8-1.7-3.8-3.8V8.8C5,6.8,6.7,5,8.8,5h37.4C48.3,5,50,6.8,50,8.8v28.9
				C50,39.8,48.3,41.6,46.2,41.6z"/>
			<path class="st0" d="M46.2,6.2c1.4,0,2.6,1.2,2.6,2.6v28.9c0,1.4-1.2,2.6-2.6,2.6H8.8c-1.4,0-2.6-1.2-2.6-2.6V8.8
				c0-1.4,1.2-2.6,2.6-2.6H46.2 M46.2,5H8.8C6.7,5,5,6.8,5,8.8v28.9c0,2.1,1.7,3.8,3.8,3.8h37.4c2.1,0,3.8-1.7,3.8-3.8V8.8
				C50,6.8,48.3,5,46.2,5L46.2,5z"/>
		</g>
	</g>
</g>
</svg>
