<?xml version="1.0" encoding="utf-8"?>
<!-- Generator: Adobe Illustrator 22.1.0, SVG Export Plug-In . SVG Version: 6.00 Build 0)  -->
<svg version="1.1" xmlns="http://www.w3.org/2000/svg" xmlns:xlink="http://www.w3.org/1999/xlink" x="0px" y="0px"
	 viewBox="0 0 100 100" style="enable-background:new 0 0 100 100;" xml:space="preserve">
<style type="text/css">
	.st0{fill:#F1F1F1;}
	.st1{fill:#808080;}
</style>
<g id="レイヤー_1">
</g>
<g id="text">
	<circle class="st0" cx="50" cy="50" r="50"/>
	<g>
		<path class="st1" d="M75.3,47.9c0.2,0.2,0.5,0.3,0.7,0.3s0.5-0.1,0.7-0.3c0.4-0.4,0.4-1,0-1.4L63.2,32.9c-0.4-0.4-1-0.4-1.4,0
			s-0.4,1,0,1.4L75.3,47.9z"/>
		<path class="st1" d="M77,50.4c-0.1-0.2-0.3-0.4-0.5-0.5c-0.1-0.1-0.3-0.1-0.4-0.1H21.9c-0.6,0-1,0.4-1,1s0.4,1,1,1h51.8L59.7,65.7
			c-0.4,0.4-0.4,1,0,1.4c0.2,0.2,0.5,0.3,0.7,0.3s0.5-0.1,0.7-0.3l15.6-15.6c0.1-0.1,0.2-0.2,0.2-0.3C77.1,50.9,77.1,50.6,77,50.4z"
			/>
	</g>
</g>
</svg>
